<?xml version="1.0" encoding="utf-8"?>
<!-- Generator: Adobe Illustrator 21.1.0, SVG Export Plug-In . SVG Version: 6.00 Build 0)  -->
<svg version="1.1" id="Calque_1" xmlns="http://www.w3.org/2000/svg" xmlns:xlink="http://www.w3.org/1999/xlink" x="0px" y="0px"
	 viewBox="0 0 432 432" style="enable-background:new 0 0 432 432;" xml:space="preserve">
<style type="text/css">
	.st0{fill:#BE1622;}
	.st1{fill:#C69C6C;}
	.st2{fill:#F39200;}
	.st3{fill:#F9B03D;}
	.st4{fill:#5BA7AD;}
	.st5{fill:#3F7579;}
	.st6{fill:#1B1B1B;}
	.st7{fill:#FFFFFF;}
	.st8{fill:#D8B6C4;}
	.st9{fill:#765844;}
	.st10{fill:#E9B2C5;}
	.st11{fill:#C7B29A;}
	.st12{fill:#EDBD7D;}
	.st13{fill:#1D71B8;}
	.st14{fill:#95C11F;}
	.st15{fill:#E94E1B;}
	.st16{fill:#575756;}
	.st17{fill:#844C16;}
	.st18{fill:#E50071;}
	.st19{fill:#AF175D;}
	.st20{fill:#E4051E;}
	.st21{fill:#13110C;}
	.st22{fill:#891A2C;}
	.st23{fill:#28295F;}
	.st24{fill:#CECFBC;}
	.st25{fill:#981F24;}
	.st26{fill:#020203;}
	.st27{fill:#BC2333;}
	.st28{fill:#AD1917;}
	.st29{fill:#04683B;}
	.st30{fill:#049348;}
	.st31{fill:#2D3D8D;}
	.st32{fill:#F39233;}
	.st33{fill:#EB5C35;}
	.st34{fill:#AA1917;}
	.st35{fill:#55514F;}
	.st36{fill:#20376D;}
	.st37{fill:#B3BBC5;}
	.st38{fill:#BAC6BC;}
	.st39{fill:#B4BA8C;}
	.st40{fill:#746458;}
	.st41{fill:#343434;}
	.st42{fill:#CEC3BC;}
	.st43{fill:#FBBA0E;}
	.st44{fill:#FED98D;}
	.st45{fill:#676767;}
	.st46{fill:#8DBE22;}
	.st47{fill:#D0E1A4;}
	.st48{fill:#EFE8E4;}
	.st49{fill:#754695;}
	.st50{fill:#A78BC0;}
	.st51{fill:#8EC045;}
	.st52{fill:#0D71B9;}
	.st53{fill:#EAC686;}
	.st54{fill:#D24063;}
	.st55{fill:#E2A11A;}
	.st56{fill:#E9BD71;}
	.st57{fill:#E8423E;}
	.st58{fill:#F8AE4C;}
	.st59{fill:#00A19A;}
	.st60{fill:#2578B9;}
	.st61{fill:#A29F9D;}
	.st62{fill:#D2B89A;}
	.st63{fill:#E6C2A9;}
	.st64{fill:#6E3B11;}
	.st65{fill:#9B6228;}
	.st66{fill:#C9A1CB;}
	.st67{fill:#F8AB00;}
	.st68{fill:#BEBBBB;}
	.st69{fill:#066938;}
	.st70{fill:#36A36A;}
	.st71{fill:#4F702A;}
	.st72{fill:#A4191E;}
	.st73{fill:#3AAA35;}
	.st74{fill:#D01419;}
	.st75{fill:#CA1527;}
	.st76{fill:#684A40;}
	.st77{fill:#9A7B65;}
	.st78{fill:#FBB700;}
	.st79{fill:#82BB26;}
	.st80{fill:#00A8E4;}
	.st81{fill:#CEA57B;}
	.st82{fill:#57B031;}
	.st83{fill:#E5251F;}
	.st84{fill:#EFDD37;}
	.st85{fill:#59C4E9;}
	.st86{fill:#F08017;}
	.st87{fill:#974393;}
	.st88{fill:#F9EA31;}
	.st89{fill:#C1292E;}
	.st90{fill:#F2D77E;}
	.st91{fill:#E6332A;}
	.st92{fill:#29235C;}
	.st93{fill:#3C3C3B;}
	.st94{fill:#2FAC66;}
	.st95{fill:#2D2E83;}
	.st96{fill:#645B51;}
	.st97{fill:#36A9E1;}
	.st98{fill:#312783;}
	.st99{fill:#2E4959;}
	.st100{fill:#5F8699;}
	.st101{fill:#172B35;}
	.st102{fill:#C3D5E4;}
	.st103{fill:#7B9135;}
	.st104{fill:#E59546;}
	.st105{fill:#B2C65F;}
	.st106{fill:#85BBB7;}
	.st107{fill:#F39323;}
	.st108{fill:#FFFFFE;}
	.st109{fill:#EFD2AC;}
	.st110{fill:#C0E0EF;}
	.st111{fill:#EFDAEC;}
	.st112{fill:#63B8A4;}
	.st113{fill:#BDCCD4;}
	.st114{fill:#8C633A;}
	.st115{fill:#CA9E67;}
	.st116{fill:#7D4E24;}
	.st117{fill:#B8B569;}
	.st118{fill:#E8C515;}
	.st119{fill:#A5A258;}
	.st120{fill:#AA884D;}
	.st121{fill:#9E994B;}
	.st122{fill:#D1A479;}
	.st123{fill:#936037;}
	.st124{fill:#FAFAFA;}
	.st125{fill:#98CDC5;}
	.st126{fill:#E1EBE8;}
	.st127{fill:#DDCE9E;}
	.st128{fill:#A67D52;}
	.st129{fill:#437156;}
	.st130{fill:#4F8366;}
	.st131{fill:#8F6947;}
	.st132{fill:#856143;}
	.st133{fill:#171512;}
	.st134{fill:#AA191B;}
	.st135{fill:#1C1A38;}
	.st136{fill:#8E8C38;}
	.st137{fill:#CAC955;}
	.st138{fill:#6C6A29;}
	.st139{fill:#D8D564;}
	.st140{fill:#5CABD5;}
	.st141{fill:#70B4D9;}
	.st142{fill:#9A9999;}
	.st143{fill:#B4B4B4;}
	.st144{fill:#ABAA3D;}
	.st145{fill:#D7DB2F;}
	.st146{fill:#B8CED8;}
	.st147{fill:#05AB9E;}
	.st148{fill:#DAB828;}
	.st149{fill:#EB7533;}
	.st150{fill:#EDE4CA;}
	.st151{fill:#575452;}
	.st152{fill:#F9F6F4;}
	.st153{fill:#94B2AA;}
	.st154{fill:#D8D7C4;}
	.st155{fill:#BAD68E;}
	.st156{fill:#F0E6E1;}
	.st157{fill:#BFD786;}
	.st158{fill:#E9E499;}
	.st159{fill:#A2D3C2;}
	.st160{fill:#EB7976;}
	.st161{fill:#EEF4E7;}
	.st162{fill:#EADA7F;}
	.st163{fill:#B2D9C2;}
	.st164{fill:#43B284;}
	.st165{fill:#9AC028;}
	.st166{fill:#D8AD80;}
	.st167{fill:#F2F2F2;}
	.st168{fill:#767574;}
	.st169{fill:#CDC8C6;}
	.st170{fill:#634E42;}
	.st171{fill:#E4E0DF;}
	.st172{fill:#D98F53;}
	.st173{fill:#E2CAB5;}
	.st174{fill:#B61824;}
	.st175{fill:#E2BAA0;}
	.st176{fill:#CF455A;}
	.st177{fill:#648546;}
	.st178{fill:#4F6834;}
	.st179{fill:#91BB64;}
	.st180{fill:#D1CE4D;}
	.st181{fill:#CFCE67;}
	.st182{fill:#E5E4BD;}
	.st183{fill:#A69F28;}
	.st184{fill:#E3BF32;}
	.st185{fill:#E68024;}
	.st186{fill:#D27444;}
	.st187{fill:#D1B05A;}
	.st188{fill:#F4E3BD;}
	.st189{fill:#668852;}
	.st190{fill:#A3C18F;}
	.st191{fill:#D8B41E;}
	.st192{fill:#E2DBBA;}
	.st193{fill:#603914;}
	.st194{fill:#CF1042;}
	.st195{fill:#2F8A7F;}
	.st196{fill:#D19A69;}
	.st197{fill:#E9C3A4;}
	.st198{fill:#F2BF21;}
	.st199{fill:#CFD3D1;}
	.st200{fill:#E9F2ED;}
	.st201{fill:#4E4D4D;}
	.st202{fill:#C4E2D0;}
	.st203{fill:#F3F3F3;}
	.st204{fill:#F8FAF9;}
	.st205{fill:#C6B5A8;}
	.st206{fill:#F2F1E7;}
	.st207{fill:#CEC87B;}
	.st208{fill:#C7E4E5;}
	.st209{fill:#D4894A;}
	.st210{fill:#FBFDFA;}
	.st211{fill:#B4CD5F;}
	.st212{fill:#1F1B15;}
	.st213{fill:#161210;}
	.st214{fill:#A8D1D2;}
	.st215{fill:#8E6640;}
	.st216{fill:#B22518;}
	.st217{fill:#683F1D;}
	.st218{fill:#F0F7F7;}
	.st219{fill:#CD924B;}
	.st220{fill:#CDCCCC;}
	.st221{fill:#F2D7C0;}
	.st222{fill:#B21924;}
	.st223{fill:#EDCEB1;}
	.st224{fill:#7D552C;}
	.st225{fill:#A0BC6F;}
	.st226{fill:#94AD65;}
	.st227{fill:#E7E6E6;}
	.st228{fill:#9FD6DB;}
	.st229{fill:#EACD7F;}
	.st230{fill:#E28C52;}
	.st231{fill:#141414;}
	.st232{fill:#E97E28;}
	.st233{fill:#D0C657;}
	.st234{fill:#F3BC95;}
	.st235{fill:#FBFDFC;}
	.st236{fill:#CA252F;}
	.st237{fill:#B8B6B7;}
	.st238{fill:#808181;}
	.st239{fill:#F7F5DB;}
	.st240{fill:#CA1618;}
	.st241{fill:#FDC30B;}
	.st242{fill:#5F3917;}
	.st243{fill:#FFDA36;}
	.st244{fill:#AB7049;}
	.st245{fill:#619DCF;}
	.st246{fill:#45779A;}
	.st247{fill:#68AFA1;}
	.st248{fill:#108E77;}
	.st249{fill:#A5779F;}
	.st250{fill:#008D36;}
	.st251{fill:#E83E49;}
	.st252{fill:#A12D38;}
	.st253{fill-rule:evenodd;clip-rule:evenodd;fill:#677124;}
</style>
<g>
	<path d="M276.3,237.5c8.9-17.8,13.9-50.1,11-51.5c-8.5-4-1.6,21.7-15.3,47.9c-0.2,0-0.3,0-0.3,0c-24.2-15.8-40.7,15-20.5,18.3
		c6,1,14.6-1.4,20.4-7.9c0.3-0.4,0.7-0.7,1.2-1.3c0.2,0.8,0.5,1.3,0.6,1.9c0.5,2.1,0.5,4.1,0.3,6.1c-2.3,23.2-42.3,52.4-42.4,52.4
		c-5.1-5.4-18.6-22.7-17.9-27.7c20.3-3.3,22-23,6.9-21.9c-7.6,0.6-13.6,5.9-13.7,13.8c0,1.2,0,2.4,0.1,3.7c-0.6-0.1-1.1-0.2-1.6-0.3
		c-2.3-0.6-4.3-1.6-6.2-2.7c-9.6-5.9-14.8-17.1-19.9-27.1c52.6-45.2,33.8-60,30.9-53.5c-0.6,1.3-3,30.1-33.2,48.7
		c-12.3-23.8-12.5-39.7-17.9-36.4c-3.9,2.4,12.1,35.9,13.9,39.8c-16.3,14.4-30.9,28.7-38.3,49.3c-12,33.5,6.7,39.8,3.6,49.2
		c-0.8,2.5-6.5,23.7,0.3,23.2c4.7-0.4,0.2-8.7,5.4-22.7c1.5,0.6,8.8,6.9,21,2.9c7.8-2.6,12.7-7.6,15.5-14
		c5.6-12.9-18.3-21.4-38.4,2.2c-19.2-32.1,15.9-73.9,33.1-85.3c4.9,9.5,10.2,20.2,20,26.5c3.6,2.4,7.6,4.1,12.1,4.7
		c0.2,0,0.4,0.1,0.6,0.2c0.1,0.4,0.3,0.7,0.4,1c3.4,11,12.5,21.3,19.6,29.8c-16.6,15.2-33,27.5-28.3,51.1c0.5,2.7,5.8,3.3,5.5-0.6
		c-1.3-15.7-0.5-23.4,26.5-46.5c25.3,25.1,39.3,35,15.4,51.9c-3.5,2.5,0.5,6.2,4.2,3.7c29.3-20.2,8-33.2-15.8-58.8
		c8.3-8.6,40.7-30,44-54.4c0.7-4.8,0.3-9.7-2.8-14.4C275.9,238.3,276.1,237.9,276.3,237.5z M256.7,247.6c-17.7,4.2-7.5-23.5,13-9.6
		C266.7,242.5,263,246.1,256.7,247.6z M169.6,319.4C169.6,319.4,169.6,319.4,169.6,319.4c14.4,0.1-1,22.2-16.9,18.6
		C135.3,333.9,157.7,321,169.6,319.4z M220.1,258.4c8.5-1.8,5.6,10.4-7.9,13C211.3,263.4,214.8,259.5,220.1,258.4z"/>
	<path class="st59" d="M183.7,170.4c-3.5,3.9,1.4,10.7,11.4,8.1c1.4-0.4,2.8-0.7,4.5-1.2c-0.7,1.8-4.1,7.5-1.9,11
		c3.4,5.4,13-6.9,16.3-8.2c5.6,13.7,22.9,13.9,14.7-1c-6.8-12.2-10.6-10.8-2.3-16.1c51.6-33.2,28.4-99.2-15.9-98.4
		c-43.2,0.7-58.9,65.2-15,98.6C196.8,164.4,189.3,164.2,183.7,170.4z M200.3,79.6c8.3,0.3-2.4,38.1-13.8,34.3
		C177.7,111,190.8,79.2,200.3,79.6z"/>
	<path class="st60" d="M142.9,90.6C94.7,68,33,160,132.9,188.4c-2.9,16.7-9.2,27.4,12,9.7c5.4,15.8,6.2,9.8,12.5-3.9
		c3,2.2,7.8,6.3,11.4,4.7c3.8-1.7-2.8-7.1-9.8-16.9C158,180.6,191.1,113.3,142.9,90.6z M93.9,150c-11.5,6-1.3-55.3,4.6-30.7
		C105.6,148.9,114.3,139.3,93.9,150z"/>
	<path class="st60" d="M316.9,73.7c-52.4-7.5-82.8,44.7-32.2,95.7c-9.6,11.9-21.4,18.6,7.5,12.2c-1.7,14.4,1.9,9.8,13.9,1.5
		c6.5,9.6,11.3,8.7,11.2,6.1c0-1.1-0.7-2.7-3.2-11.5c-3.7-13.2,25.8-12.8,36.8-51.6C357.2,104.3,345.3,77.8,316.9,73.7z M285.5,96.9
		c-2.6,20.2,3.6,19.5-8.8,19.8c-10.2,0.3-15.4,3-9.5-10.8c7.6-17.9,19.6-24,20.7-20.7C288.8,87.9,286.5,89.1,285.5,96.9z"/>
</g>
</svg>
